<svg width="440" height="571" viewBox="0 0 440 571" fill="none" xmlns="http://www.w3.org/2000/svg">
<circle cx="241.5" cy="263.5" r="307.5" fill="url(#paint0_radial_17_79)" style="mix-blend-mode:darken"/>
<path d="M113.028 238.277C116.442 238.277 119.847 238.277 123.261 238.277C152.62 238.277 181.988 237.545 211.045 233.206C226.216 230.945 241.451 227.705 255.997 222.909C286.586 212.831 304.666 190.526 313.459 160.138C318.782 141.749 321.829 122.949 322.893 103.92C324.261 79.4353 324.857 54.9052 325.793 30.3935C325.848 28.9381 325.968 27.4919 327.161 26C327.161 28.0045 327.087 30.009 327.17 32.0044C328.207 57.7335 328.427 83.5267 330.612 109.155C332.052 126.052 335.329 142.966 339.523 159.424C348.471 194.48 371.278 216.493 406.208 226.222C424.38 231.284 442.91 234.35 461.678 235.412C485.769 236.776 509.916 237.362 534.035 238.268C535.989 238.341 537.944 238.277 540 239.201C538.926 239.329 537.862 239.54 536.779 239.577C514.33 240.318 491.854 240.62 469.424 241.892C447.15 243.155 425.086 246.121 403.574 252.556C369.984 262.596 348.93 284.609 339.404 318.055C334.163 336.461 331.07 355.243 330.024 374.282C328.675 398.775 328.051 423.296 327.133 447.808C327.078 449.163 327.133 450.517 326.326 452C326.17 451.14 325.894 450.288 325.867 449.419C325.123 427.031 324.765 404.615 323.572 382.254C322.407 360.332 319.479 338.603 313.348 317.405C303.446 283.182 281.3 261.434 246.957 251.814C228.639 246.679 209.962 243.604 191.038 242.551C166.79 241.197 142.497 240.602 118.222 239.677C116.478 239.613 114.744 239.494 113 239.394C113 239.018 113.018 238.643 113.028 238.259V238.277Z" fill="white"/>
<defs>
<radialGradient id="paint0_radial_17_79" cx="0" cy="0" r="1" gradientUnits="userSpaceOnUse" gradientTransform="translate(241.5 263.5) rotate(90) scale(307.5)">
<stop stop-color="white"/>
<stop offset="0.335" stop-color="#FFA68B"/>
<stop offset="0.63" stop-color="#FF8060"/>
<stop offset="0.935464" stop-color="white"/>
</radialGradient>
</defs>
</svg>
